<svg width="40" height="54" viewBox="0 0 40 54" fill="none" xmlns="http://www.w3.org/2000/svg">
<path d="M37.9937 29.5876C37.9373 29.4189 37.8806 29.2502 37.7679 29.0815C37.4853 30.319 36.7512 32.1188 35.282 32.6815C35.282 32.6815 37.881 23.9626 32.0054 18.2814C32.0054 18.5627 32.0617 18.9001 32.0617 19.2376C32.0054 23.5125 29.7453 25.144 29.7453 25.144C29.7453 12.8251 21.949 8.71883 20.7628 0C16.3 8.10017 19.3505 13.1626 12.797 21.0377C12.5145 20.0815 10.8195 18.3939 10.4243 17.4938C8.33406 24.6939 6.01769 23.3437 4.9443 29.0814C3.9276 27.3938 2.57153 25.8749 0.707214 24.6939C1.15922 25.7627 1.32867 26.8876 1.32867 28.0125C1.32867 28.8561 0.989767 30.2624 0.594124 31.95C-1.38338 40.6124 3.07998 48.9939 10.3676 52.5939C9.8592 51.2438 9.68975 49.7252 9.97191 48.2064C10.0283 47.8689 10.1414 47.475 10.3108 47.0249C10.2545 45.5625 10.5366 44.7185 10.5934 44.4937C10.8192 43.7624 11.2148 43.0313 11.6669 42.3561C12.9661 40.4999 13.7571 37.7434 12.5141 35.8875C12.2883 35.5501 12.0058 35.4375 11.7232 35.3814C11.7232 35.3814 10.7065 34.9313 9.29415 35.4375C8.05128 35.8314 8.4469 36.7311 8.4469 36.7311C8.4469 36.7311 6.46939 35.1561 8.8989 33.8624C8.8989 33.8624 9.52036 33.5811 9.63345 33.4124L9.68981 33.1311C9.68981 32.9062 9.68981 32.5123 10.0287 32.231C10.6502 31.6122 11.7799 31.2187 11.8367 31.2187C12.4018 30.9938 12.9665 30.7125 13.4186 30.3186C14.04 29.8124 14.4921 29.1371 14.8873 28.4623C14.9437 28.3497 15.0568 28.4062 15.0568 28.5184V28.5745C14.8873 29.8682 15.2826 31.1622 16.1303 32.1745C16.6386 32.7933 17.0343 33.637 17.2038 34.7623C17.3732 35.7185 17.2601 36.956 17.2038 38.1935C16.4129 39.5998 15.2831 40.9499 13.8707 42.131C13.3623 42.581 12.9104 43.0311 12.5147 43.4811C13.1926 42.8062 13.9271 42.2436 14.7743 41.7374C28.22 33.5247 19.0114 17.606 19.0114 17.606C19.2939 17.7747 19.6892 18.1121 20.1412 18.5061C25.9601 23.4562 28.8411 31.0499 27.9939 38.6437L27.7114 41.3437C31.327 37.181 30.5361 31.8938 30.8186 32.3999C30.8186 32.3999 30.875 32.5125 30.9317 32.6813C32.683 37.4628 32.2877 42.8064 29.9151 47.3064L29.463 48.15C32.1183 46.7437 34.6605 42.4123 34.6605 42.4123C34.2085 46.8559 31.61 50.7938 27.7118 52.9312L26.9773 53.3251C27.0336 53.3251 27.0904 53.3812 27.1467 53.3812C36.4685 50.0064 41.8918 39.4315 37.9937 29.5876Z" fill="white"/>
</svg>
