<svg width="38" height="38" viewBox="0 0 38 38" fill="none" xmlns="http://www.w3.org/2000/svg">
<g clip-path="url(#clip0_608_526)">
<path d="M15.0139 24.598C15.2339 25.852 15.7399 26.82 16.5319 27.502C17.3459 28.184 18.4349 28.525 19.7989 28.525C21.6249 28.525 22.9669 27.81 23.8249 26.38C24.7049 24.95 25.1229 22.541 25.0789 19.153C24.6169 20.143 23.8469 20.924 22.7689 21.496C21.6909 22.046 20.4919 22.321 19.1719 22.321C17.6979 22.321 16.3779 22.024 15.2119 21.43C14.0679 20.814 13.1659 19.923 12.5059 18.757C11.8459 17.591 11.5159 16.183 11.5159 14.533C11.5159 12.179 12.1979 10.287 13.5619 8.857C14.9259 7.405 16.8619 6.679 19.3699 6.679C22.4499 6.679 24.6059 7.68 25.8379 9.682C27.0919 11.684 27.7189 14.665 27.7189 18.625C27.7189 21.397 27.4659 23.685 26.9599 25.489C26.4759 27.293 25.6399 28.668 24.4519 29.614C23.2859 30.56 21.6799 31.033 19.6339 31.033C17.3899 31.033 15.6409 30.428 14.3869 29.218C13.1329 28.008 12.4179 26.468 12.2419 24.598H15.0139ZM19.6669 19.78C21.1409 19.78 22.3509 19.329 23.2969 18.427C24.2429 17.503 24.7159 16.26 24.7159 14.698C24.7159 13.048 24.2539 11.717 23.3299 10.705C22.4059 9.693 21.1079 9.187 19.4359 9.187C17.8959 9.187 16.6639 9.671 15.7399 10.639C14.8379 11.607 14.3869 12.883 14.3869 14.467C14.3869 16.073 14.8379 17.36 15.7399 18.328C16.6419 19.296 17.9509 19.78 19.6669 19.78Z" fill="white"/>
</g>
<defs>
<clipPath id="clip0_608_526">
<rect width="38" height="38" fill="white"/>
</clipPath>
</defs>
</svg>
