<svg width="38" height="38" viewBox="0 0 38 38" fill="none" xmlns="http://www.w3.org/2000/svg">
<path d="M19.988 0.529625C19.8795 0.366988 19.7326 0.233637 19.5602 0.141407C19.3879 0.0491775 19.1954 0.000921249 19 0.000921249C18.8045 0.000921249 18.612 0.0491775 18.4397 0.141407C18.2673 0.233637 18.1204 0.366988 18.012 0.529625L10.887 11.2171C10.768 11.396 10.6997 11.6037 10.6894 11.8183C10.6792 12.0328 10.7273 12.2461 10.8287 12.4355C10.9301 12.6249 11.0809 12.7832 11.2652 12.8936C11.4494 13.004 11.6602 13.0624 11.875 13.0625H12.1077L7.30546 20.7456C7.19311 20.9254 7.13093 21.1319 7.12537 21.3438C7.1198 21.5557 7.17106 21.7653 7.27382 21.9507C7.37658 22.1361 7.52709 22.2906 7.70973 22.3982C7.89237 22.5058 8.10049 22.5625 8.31246 22.5625H8.76609L4.87584 30.343C4.78511 30.524 4.7422 30.7253 4.75116 30.9276C4.76013 31.1299 4.82068 31.3265 4.92707 31.4988C5.03345 31.6712 5.18213 31.8134 5.35898 31.912C5.53582 32.0107 5.73496 32.0625 5.93746 32.0625H16.625V38H21.375V32.0625H32.0625C32.265 32.0625 32.4641 32.0107 32.6409 31.912C32.8178 31.8134 32.9665 31.6712 33.0729 31.4988C33.1792 31.3265 33.2398 31.1299 33.2488 30.9276C33.2577 30.7253 33.2148 30.524 33.1241 30.343L29.2362 22.5625H29.6898C29.9018 22.5625 30.1099 22.5058 30.2926 22.3982C30.4752 22.2906 30.6257 22.1361 30.7285 21.9507C30.8312 21.7653 30.8825 21.5557 30.8769 21.3438C30.8714 21.1319 30.8092 20.9254 30.6968 20.7456L25.8922 13.0625H26.125C26.3398 13.0624 26.5505 13.004 26.7348 12.8936C26.919 12.7832 27.0699 12.6249 27.1712 12.4355C27.2726 12.2461 27.3208 12.0328 27.3105 11.8183C27.3002 11.6037 27.232 11.396 27.113 11.2171L19.988 0.529625Z" fill="white"/>
</svg>
