<svg width="40" height="37" viewBox="0 0 40 37" fill="none" xmlns="http://www.w3.org/2000/svg">
<path d="M23.8 31.3206C30.9649 31.3206 34.5483 31.3206 36.7732 29.0996C39 26.8805 39 23.3065 39 16.1603C39 9.01412 39 5.44008 36.7732 3.22099C34.5483 1 30.9649 1 23.8 1H16.2C9.0351 1 5.4517 1 3.2268 3.22099C1 5.44008 1 9.01412 1 16.1603C1 23.3065 1 26.8805 3.2268 29.0996C4.4675 30.339 6.13 30.8867 8.6 31.1273" stroke="white" stroke-width="2" stroke-linecap="round" stroke-linejoin="round"/>
<path d="M19.9999 16.1603V16.1792M12.3999 16.1603V16.1792M27.5999 16.1603V16.1792M23.7999 31.3206C21.4515 31.3206 18.8637 32.2681 16.502 33.4904C12.7058 35.4556 10.8077 36.4391 9.87294 35.8118C8.93814 35.1865 9.11484 33.244 9.47014 29.3611L9.54994 28.478" stroke="white" stroke-width="2" stroke-linecap="round"/>
</svg>
