<svg width="51" height="40" viewBox="0 0 51 40" fill="none" xmlns="http://www.w3.org/2000/svg">
<path d="M3.64286 18.1801H25.5V21.8161H3.64286V18.1801ZM0 9.09006H18.2143V12.7261H0V9.09006Z" fill="white"/>
<path d="M50.8524 19.2818L45.3881 6.55573C45.2479 6.22863 45.0145 5.94985 44.7169 5.75399C44.4194 5.55813 44.0707 5.45382 43.7142 5.45402H38.2499V1.81801C38.2499 1.33584 38.058 0.873424 37.7165 0.532482C37.3749 0.19154 36.9116 0 36.4285 0H7.28561V3.63601H34.6071V26.4629C33.7771 26.9439 33.0508 27.5842 32.4699 28.3468C31.8891 29.1094 31.4653 29.9792 31.2229 30.9061H19.777C19.3337 29.1923 18.2794 27.6988 16.8117 26.7054C15.344 25.712 13.5637 25.287 11.8046 25.51C10.0454 25.7331 8.42813 26.5888 7.25588 27.9169C6.08363 29.2449 5.43689 30.9541 5.43689 32.7241C5.43689 34.4941 6.08363 36.2033 7.25588 37.5313C8.42813 38.8594 10.0454 39.7151 11.8046 39.9382C13.5637 40.1612 15.344 39.7362 16.8117 38.7428C18.2794 37.7494 19.3337 36.2559 19.777 34.5421H31.2229C31.6191 36.1024 32.5252 37.4863 33.798 38.4748C35.0707 39.4633 36.6373 40 38.2499 40C39.8626 40 41.4292 39.4633 42.7019 38.4748C43.9746 37.4863 44.8808 36.1024 45.277 34.5421H49.1785C49.6616 34.5421 50.1249 34.3506 50.4665 34.0096C50.8081 33.6687 51 33.2063 51 32.7241V19.9981C51 19.7518 50.9498 19.5081 50.8524 19.2818ZM12.7499 36.3601C12.0294 36.3601 11.3251 36.1469 10.726 35.7473C10.127 35.3478 9.66006 34.7799 9.38434 34.1156C9.10862 33.4512 9.03648 32.7201 9.17704 32.0148C9.3176 31.3094 9.66455 30.6616 10.174 30.1531C10.6835 29.6446 11.3326 29.2983 12.0392 29.158C12.7459 29.0177 13.4783 29.0897 14.144 29.3649C14.8096 29.6401 15.3786 30.1061 15.7788 30.704C16.1791 31.302 16.3928 32.005 16.3928 32.7241C16.3918 33.6881 16.0077 34.6124 15.3247 35.2941C14.6418 35.9758 13.7158 36.3592 12.7499 36.3601ZM38.2499 9.09003H42.5121L46.4172 18.1801H38.2499V9.09003ZM38.2499 36.3601C37.5295 36.3601 36.8251 36.1469 36.2261 35.7473C35.627 35.3478 35.1601 34.7799 34.8844 34.1156C34.6087 33.4512 34.5365 32.7201 34.6771 32.0148C34.8176 31.3094 35.1646 30.6616 35.674 30.1531C36.1835 29.6446 36.8326 29.2983 37.5393 29.158C38.2459 29.0177 38.9784 29.0897 39.644 29.3649C40.3097 29.6401 40.8786 30.1061 41.2789 30.704C41.6791 31.302 41.8928 32.005 41.8928 32.7241C41.8918 33.6881 41.5077 34.6124 40.8248 35.2941C40.1418 35.9758 39.2158 36.3592 38.2499 36.3601ZM47.3571 30.9061H45.277C44.8758 29.3489 43.9682 27.9685 42.6965 26.9815C41.4248 25.9945 39.8609 25.4566 38.2499 25.4521V21.8161H47.3571V30.9061Z" fill="white"/>
</svg>
