<svg width="40" height="54" viewBox="0 0 40 54" fill="none" xmlns="http://www.w3.org/2000/svg">
<path d="M37.9937 30.2064C37.9374 30.0377 37.8806 29.869 37.7679 29.7002C37.4853 30.9377 36.7512 32.7376 35.282 33.3003C35.282 33.3003 37.881 24.5813 32.0054 18.9001C32.0054 19.1815 32.0617 19.5189 32.0617 19.8563C32.0054 24.1313 29.7453 25.7628 29.7453 25.7628C29.7453 13.4439 21.949 9.3376 20.7628 0.618774C16.3 8.71895 19.3505 13.7814 12.797 21.6565C12.5145 20.7003 10.8195 19.0127 10.4243 18.1126C8.33406 25.3126 6.01769 23.9624 4.9443 29.7002C3.9276 28.0126 2.57153 26.4937 0.707214 25.3126C1.15922 26.3815 1.32867 27.5064 1.32867 28.6313C1.32867 29.4749 0.989767 30.8811 0.594124 32.5688C-1.38338 41.2311 3.07998 49.6127 10.3676 53.2127C9.8592 51.8626 9.68975 50.344 9.97191 48.8252C10.0283 48.4877 10.1414 48.0938 10.3108 47.6437C10.2545 46.1813 10.5366 45.3373 10.5934 45.1125C10.8192 44.3811 11.2148 43.6501 11.6669 42.9749C12.9661 41.1186 13.7571 38.3622 12.5141 36.5063C12.2883 36.1689 12.0058 36.0562 11.7232 36.0001C11.7232 36.0001 10.7065 35.5501 9.29415 36.0562C8.05128 36.4502 8.4469 37.3499 8.4469 37.3499C8.4469 37.3499 6.46939 35.7749 8.8989 34.4812C8.8989 34.4812 9.52036 34.1999 9.63345 34.0312L9.68981 33.7498C9.68981 33.525 9.68981 33.1311 10.0287 32.8497C10.6502 32.231 11.7799 31.8374 11.8367 31.8374C12.4018 31.6126 12.9665 31.3313 13.4186 30.9373C14.04 30.4312 14.4921 29.7559 14.8873 29.0811C14.9437 28.9685 15.0568 29.025 15.0568 29.1372V29.1933C14.8873 30.4869 15.2826 31.781 16.1303 32.7933C16.6386 33.4121 17.0343 34.2557 17.2038 35.381C17.3732 36.3372 17.2601 37.5748 17.2038 38.8123C16.4129 40.2186 15.2831 41.5687 13.8707 42.7498C13.3623 43.1998 12.9104 43.6499 12.5147 44.0999C13.1926 43.425 13.9271 42.8624 14.7743 42.3562C28.22 34.1434 19.0114 18.2247 19.0114 18.2247C19.2939 18.3935 19.6892 18.7309 20.1412 19.1248C25.9601 24.075 28.8411 31.6687 27.9939 39.2625L27.7114 41.9624C31.327 37.7998 30.5361 32.5126 30.8186 33.0187C30.8186 33.0187 30.875 33.1313 30.9317 33.3C32.683 38.0815 32.2877 43.4251 29.9151 47.9252L29.463 48.7688C32.1183 47.3625 34.6605 43.0311 34.6605 43.0311C34.2085 47.4747 31.61 51.4125 27.7118 53.55L26.9773 53.9439C27.0336 53.9439 27.0904 54 27.1467 54C36.4685 50.6252 41.8918 40.0499 37.9936 30.2061L37.9937 30.2064Z" fill="url(#paint0_linear_501_15)"/>
<defs>
<linearGradient id="paint0_linear_501_15" x1="0.124756" y1="25.6385" x2="39.2834" y2="25.6385" gradientUnits="userSpaceOnUse">
<stop stop-color="#C90000"/>
<stop offset="1" stop-color="#620000"/>
</linearGradient>
</defs>
</svg>
