<svg width="38" height="35" viewBox="0 0 38 35" fill="none" xmlns="http://www.w3.org/2000/svg">
<path d="M12.6667 2.5C13.9193 2.5 15.1438 2.86656 16.1853 3.55331C17.2268 4.24007 18.0385 5.21619 18.5179 6.35823C18.9973 7.50027 19.1227 8.75693 18.8783 9.96931C18.6339 11.1817 18.0307 12.2953 17.145 13.1694C16.2593 14.0435 15.1308 14.6388 13.9022 14.8799C12.6737 15.1211 11.4003 14.9973 10.243 14.5242C9.08574 14.0512 8.09661 13.2501 7.40069 12.2223C6.70478 11.1945 6.33333 9.98613 6.33333 8.75C6.33333 7.0924 7.00059 5.50269 8.18832 4.33058C9.37605 3.15848 10.987 2.5 12.6667 2.5ZM12.6667 0C10.913 0 9.19873 0.513179 7.74061 1.47464C6.2825 2.4361 5.14603 3.80267 4.47493 5.40152C3.80384 7.00037 3.62825 8.75971 3.97037 10.457C4.31249 12.1544 5.15696 13.7135 6.39699 14.9372C7.63701 16.1609 9.2169 16.9943 10.9369 17.3319C12.6568 17.6695 14.4396 17.4962 16.0598 16.8339C17.68 16.1717 19.0647 15.0502 20.039 13.6112C21.0133 12.1723 21.5333 10.4806 21.5333 8.75C21.5333 6.42936 20.5992 4.20376 18.9363 2.56282C17.2735 0.921872 15.0183 0 12.6667 0ZM25.3333 35H22.8V28.75C22.8 27.0924 22.1327 25.5027 20.945 24.3306C19.7573 23.1585 18.1464 22.5 16.4667 22.5H8.86667C7.18696 22.5 5.57605 23.1585 4.38832 24.3306C3.20059 25.5027 2.53333 27.0924 2.53333 28.75V35H0V28.75C0 26.4294 0.934164 24.2038 2.59699 22.5628C4.25981 20.9219 6.51508 20 8.86667 20H16.4667C18.8183 20 21.0735 20.9219 22.7363 22.5628C24.3992 24.2038 25.3333 26.4294 25.3333 28.75V35ZM25.3333 2.5H38V5H25.3333V2.5ZM25.3333 8.75H38V11.25H25.3333V8.75ZM25.3333 15H34.2V17.5H25.3333V15Z" fill="white"/>
</svg>
