<svg width="35" height="38" viewBox="0 0 35 38" fill="none" xmlns="http://www.w3.org/2000/svg">
<path d="M13.4075 17.7334C13.2405 17.7334 13.0803 17.8001 12.9622 17.9189C12.8442 18.0376 12.7778 18.1987 12.7778 18.3667V23.4334C12.7778 23.6013 12.8442 23.7624 12.9622 23.8812C13.0803 24 13.2405 24.0667 13.4075 24.0667C13.5745 24.0667 13.7346 24 13.8527 23.8812C13.9708 23.7624 14.0371 23.6013 14.0371 23.4334V18.3667C14.0371 18.1987 13.9708 18.0376 13.8527 17.9189C13.7346 17.8001 13.5745 17.7334 13.4075 17.7334ZM17.8149 8.8667C21.2918 8.8667 24.1113 7.8027 24.1113 6.4917C24.1113 5.17943 21.2918 4.1167 17.8149 4.1167C14.3381 4.1167 11.5186 5.1807 11.5186 6.4917C11.5186 7.80397 14.3381 8.8667 17.8149 8.8667ZM17.8149 7.60003C15.7283 7.60003 14.0371 7.03257 14.0371 6.33337C14.0371 5.63417 15.7283 5.0667 17.8149 5.0667C19.9016 5.0667 21.5928 5.63417 21.5928 6.33337C21.5928 7.03257 19.9016 7.60003 17.8149 7.60003Z" fill="white"/>
<path d="M33.0017 7.89387C32.3119 7.19825 31.3804 6.79947 30.4038 6.78173C30.3497 5.41627 29.6936 4.2978 28.9078 3.4808C28.0981 2.63847 27.0491 1.995 25.9485 1.51113C23.7359 0.538333 20.8598 0 17.8123 0C14.7686 0 11.8912 0.538333 9.67989 1.51113C8.57928 1.995 7.52904 2.63847 6.72059 3.4808C5.9008 4.33453 5.22205 5.51633 5.22205 6.96667V17.5889C4.63883 17.5017 4.04341 17.5533 3.48356 17.7394C2.92371 17.9255 2.41502 18.241 1.9983 18.6605L1.10673 19.5561C0.755856 19.9089 0.477525 20.3279 0.287631 20.789C0.0977375 21.25 0 21.7442 0 22.2433C0 22.7424 0.0977375 23.2366 0.287631 23.6976C0.477525 24.1587 0.755856 24.5777 1.10673 24.9305L5.22205 29.07V31.0333C5.22205 32.4837 5.9008 33.6655 6.72059 34.5205C7.5303 35.3615 8.58054 36.0037 9.68115 36.4889C11.8924 37.4617 14.7686 38 17.8148 38C20.4341 38 22.9111 37.6023 24.9448 36.8853C26.1689 36.4534 27.3224 35.8733 28.253 35.1196C29.3536 34.2279 30.4076 32.8561 30.4076 31.0333V17.67L33.8933 14.1639C34.2441 13.811 34.5225 13.3921 34.7124 12.931C34.9023 12.4699 35 11.9757 35 11.4766C35 10.9776 34.9023 10.4834 34.7124 10.0223C34.5225 9.56121 34.2441 9.14227 33.8933 8.7894L33.003 7.89387H33.0017ZM7.7406 22.648V11.3303C8.13601 11.6166 8.56039 11.8712 8.99988 12.0979V17.1C8.99988 17.268 9.06621 17.4291 9.18429 17.5478C9.30237 17.6666 9.46253 17.7333 9.62952 17.7333C9.79651 17.7333 9.95666 17.6666 10.0747 17.5478C10.1928 17.4291 10.2592 17.268 10.2592 17.1V12.6603C12.3823 13.4837 15.028 13.9333 17.8148 13.9333C20.8598 13.9333 23.7372 13.395 25.9472 12.4222C27.0491 11.9371 28.0993 11.2949 28.9078 10.4525C29.1748 10.1751 29.4266 9.86353 29.6445 9.519C29.8864 9.36077 30.175 9.29091 30.462 9.32112C30.749 9.35132 31.017 9.47976 31.2211 9.68493L32.1127 10.5817C32.3487 10.8193 32.4813 11.1414 32.4813 11.4773C32.4813 11.8131 32.3487 12.1353 32.1127 12.3728L27.889 16.6187V31.0333C27.889 31.7984 27.4483 32.5179 26.6726 33.1461C26.2694 33.466 25.8328 33.7408 25.3705 33.9657V28.5C25.3705 28.332 25.3041 28.1709 25.1861 28.0522C25.068 27.9334 24.9078 27.8667 24.7408 27.8667C24.5739 27.8667 24.4137 27.9334 24.2956 28.0522C24.1775 28.1709 24.1112 28.332 24.1112 28.5V34.4939C22.386 35.1019 20.1974 35.4667 17.8148 35.4667C12.2513 35.4667 7.7406 33.4818 7.7406 31.0333V28.0199L2.88735 23.1395C2.77026 23.0218 2.67738 22.8821 2.61401 22.7284C2.55063 22.5746 2.51802 22.4098 2.51802 22.2433C2.51802 22.0768 2.55063 21.912 2.61401 21.7582C2.67738 21.6045 2.77026 21.4648 2.88735 21.3471L3.77891 20.4516C4.01506 20.2141 4.33531 20.0807 4.66922 20.0807C5.00314 20.0807 5.32338 20.2141 5.55953 20.4516L7.7406 22.648ZM27.889 6.96667C27.889 9.41513 23.3783 11.4 17.8148 11.4C12.2513 11.4 7.7406 9.41513 7.7406 6.96667C7.7406 4.5182 12.2513 2.53333 17.8148 2.53333C23.3783 2.53333 27.889 4.5182 27.889 6.96667Z" fill="white"/>
</svg>
