<svg width="42" height="42" viewBox="0 0 42 42" fill="none" xmlns="http://www.w3.org/2000/svg">
<path d="M21 0C9.40313 0 0 9.40313 0 21C0 32.5969 9.40313 42 21 42C32.5969 42 42 32.5969 42 21C42 9.40313 32.5969 0 21 0ZM22.5 31.125C22.5 31.3312 22.3312 31.5 22.125 31.5H19.875C19.6688 31.5 19.5 31.3312 19.5 31.125V18.375C19.5 18.1688 19.6688 18 19.875 18H22.125C22.3312 18 22.5 18.1688 22.5 18.375V31.125ZM21 15C20.4112 14.988 19.8506 14.7456 19.4385 14.325C19.0263 13.9044 18.7955 13.3389 18.7955 12.75C18.7955 12.1611 19.0263 11.5956 19.4385 11.175C19.8506 10.7544 20.4112 10.512 21 10.5C21.5888 10.512 22.1494 10.7544 22.5616 11.175C22.9737 11.5956 23.2045 12.1611 23.2045 12.75C23.2045 13.3389 22.9737 13.9044 22.5616 14.325C22.1494 14.7456 21.5888 14.988 21 15Z" fill="white"/>
</svg>
